<mxfile host="app.diagrams.net" modified="2020-11-26T13:55:41.846Z" agent="5.0 (Macintosh; Intel Mac OS X 10_15_6) AppleWebKit/605.1.15 (KHTML, like Gecko) Version/14.0.1 Safari/605.1.15" etag="a_ehukgwbFoS-ELPOJRd" version="13.10.3" type="github">
  <diagram id="R2lEEEUBdFMjLlhIrx00" name="Page-1">
    <mxGraphModel dx="1186" dy="725" grid="1" gridSize="10" guides="1" tooltips="1" connect="1" arrows="1" fold="1" page="1" pageScale="1" pageWidth="850" pageHeight="1100" math="0" shadow="0" extFonts="Permanent Marker^https://fonts.googleapis.com/css?family=Permanent+Marker">
      <root>
        <mxCell id="0" />
        <mxCell id="1" parent="0" />
        <mxCell id="C-vyLk0tnHw3VtMMgP7b-23" value="CASADINHA_CPF" style="shape=table;startSize=30;container=1;collapsible=1;childLayout=tableLayout;fixedRows=1;rowLines=0;fontStyle=1;align=center;resizeLast=1;" parent="1" vertex="1">
          <mxGeometry x="102" y="120" width="270" height="180" as="geometry" />
        </mxCell>
        <mxCell id="C-vyLk0tnHw3VtMMgP7b-24" value="" style="shape=partialRectangle;collapsible=0;dropTarget=0;pointerEvents=0;fillColor=none;points=[[0,0.5],[1,0.5]];portConstraint=eastwest;top=0;left=0;right=0;bottom=1;" parent="C-vyLk0tnHw3VtMMgP7b-23" vertex="1">
          <mxGeometry y="30" width="270" height="70" as="geometry" />
        </mxCell>
        <mxCell id="C-vyLk0tnHw3VtMMgP7b-25" value="PK" style="shape=partialRectangle;overflow=hidden;connectable=0;fillColor=none;top=0;left=0;bottom=0;right=0;fontStyle=1;" parent="C-vyLk0tnHw3VtMMgP7b-24" vertex="1">
          <mxGeometry width="30" height="70" as="geometry" />
        </mxCell>
        <mxCell id="C-vyLk0tnHw3VtMMgP7b-26" value="" style="shape=partialRectangle;overflow=hidden;connectable=0;fillColor=none;top=0;left=0;bottom=0;right=0;align=left;spacingLeft=6;fontStyle=5;" parent="C-vyLk0tnHw3VtMMgP7b-24" vertex="1">
          <mxGeometry x="30" width="240" height="70" as="geometry" />
        </mxCell>
        <mxCell id="C-vyLk0tnHw3VtMMgP7b-27" value="" style="shape=partialRectangle;collapsible=0;dropTarget=0;pointerEvents=0;fillColor=none;points=[[0,0.5],[1,0.5]];portConstraint=eastwest;top=0;left=0;right=0;bottom=0;" parent="C-vyLk0tnHw3VtMMgP7b-23" vertex="1">
          <mxGeometry y="100" width="270" height="30" as="geometry" />
        </mxCell>
        <mxCell id="C-vyLk0tnHw3VtMMgP7b-28" value="" style="shape=partialRectangle;overflow=hidden;connectable=0;fillColor=none;top=0;left=0;bottom=0;right=0;" parent="C-vyLk0tnHw3VtMMgP7b-27" vertex="1">
          <mxGeometry width="30" height="30" as="geometry" />
        </mxCell>
        <mxCell id="C-vyLk0tnHw3VtMMgP7b-29" value="" style="shape=partialRectangle;overflow=hidden;connectable=0;fillColor=none;top=0;left=0;bottom=0;right=0;align=left;spacingLeft=6;" parent="C-vyLk0tnHw3VtMMgP7b-27" vertex="1">
          <mxGeometry x="30" width="240" height="30" as="geometry" />
        </mxCell>
        <mxCell id="LmmAYVEM7wrtZ3ZLRTmw-12" value="CPF Type.BIGINT()" style="shape=partialRectangle;overflow=hidden;connectable=0;fillColor=none;top=0;left=0;bottom=0;right=0;align=left;spacingLeft=6;fontStyle=5;" vertex="1" parent="1">
          <mxGeometry x="133" y="180" width="240" height="30" as="geometry" />
        </mxCell>
        <mxCell id="LmmAYVEM7wrtZ3ZLRTmw-14" value="&lt;span style=&quot;color: rgb(0, 0, 0); font-family: helvetica; font-size: 12px; font-style: normal; font-weight: bold; letter-spacing: normal; text-align: left; text-indent: 0px; text-transform: none; word-spacing: 0px; background-color: rgb(248, 249, 250); text-decoration: underline; display: inline; float: none;&quot;&gt;CODIGO_CASADINHA&amp;nbsp;Type.INTEGER()&lt;/span&gt;" style="text;whiteSpace=wrap;html=1;" vertex="1" parent="1">
          <mxGeometry x="140" y="160" width="250" height="30" as="geometry" />
        </mxCell>
        <mxCell id="LmmAYVEM7wrtZ3ZLRTmw-15" value="fields de log" style="shape=partialRectangle;overflow=hidden;connectable=0;fillColor=none;top=0;left=0;bottom=0;right=0;align=left;spacingLeft=6;" vertex="1" parent="1">
          <mxGeometry x="140" y="230" width="80" height="30" as="geometry" />
        </mxCell>
        <mxCell id="LmmAYVEM7wrtZ3ZLRTmw-33" value="" style="group" vertex="1" connectable="0" parent="1">
          <mxGeometry x="102" y="320" width="288" height="180" as="geometry" />
        </mxCell>
        <mxCell id="LmmAYVEM7wrtZ3ZLRTmw-23" value="CASADINHA_GRUPO" style="shape=table;startSize=30;container=1;collapsible=1;childLayout=tableLayout;fixedRows=1;rowLines=0;fontStyle=1;align=center;resizeLast=1;" vertex="1" parent="LmmAYVEM7wrtZ3ZLRTmw-33">
          <mxGeometry width="270" height="180" as="geometry" />
        </mxCell>
        <mxCell id="LmmAYVEM7wrtZ3ZLRTmw-24" value="" style="shape=partialRectangle;collapsible=0;dropTarget=0;pointerEvents=0;fillColor=none;points=[[0,0.5],[1,0.5]];portConstraint=eastwest;top=0;left=0;right=0;bottom=1;" vertex="1" parent="LmmAYVEM7wrtZ3ZLRTmw-23">
          <mxGeometry y="30" width="270" height="70" as="geometry" />
        </mxCell>
        <mxCell id="LmmAYVEM7wrtZ3ZLRTmw-25" value="PK" style="shape=partialRectangle;overflow=hidden;connectable=0;fillColor=none;top=0;left=0;bottom=0;right=0;fontStyle=1;" vertex="1" parent="LmmAYVEM7wrtZ3ZLRTmw-24">
          <mxGeometry width="30" height="70" as="geometry" />
        </mxCell>
        <mxCell id="LmmAYVEM7wrtZ3ZLRTmw-26" value="" style="shape=partialRectangle;overflow=hidden;connectable=0;fillColor=none;top=0;left=0;bottom=0;right=0;align=left;spacingLeft=6;fontStyle=5;" vertex="1" parent="LmmAYVEM7wrtZ3ZLRTmw-24">
          <mxGeometry x="30" width="240" height="70" as="geometry" />
        </mxCell>
        <mxCell id="LmmAYVEM7wrtZ3ZLRTmw-27" value="" style="shape=partialRectangle;collapsible=0;dropTarget=0;pointerEvents=0;fillColor=none;points=[[0,0.5],[1,0.5]];portConstraint=eastwest;top=0;left=0;right=0;bottom=0;" vertex="1" parent="LmmAYVEM7wrtZ3ZLRTmw-23">
          <mxGeometry y="100" width="270" height="30" as="geometry" />
        </mxCell>
        <mxCell id="LmmAYVEM7wrtZ3ZLRTmw-28" value="" style="shape=partialRectangle;overflow=hidden;connectable=0;fillColor=none;top=0;left=0;bottom=0;right=0;" vertex="1" parent="LmmAYVEM7wrtZ3ZLRTmw-27">
          <mxGeometry width="30" height="30" as="geometry" />
        </mxCell>
        <mxCell id="LmmAYVEM7wrtZ3ZLRTmw-29" value="" style="shape=partialRectangle;overflow=hidden;connectable=0;fillColor=none;top=0;left=0;bottom=0;right=0;align=left;spacingLeft=6;" vertex="1" parent="LmmAYVEM7wrtZ3ZLRTmw-27">
          <mxGeometry x="30" width="240" height="30" as="geometry" />
        </mxCell>
        <mxCell id="LmmAYVEM7wrtZ3ZLRTmw-30" value="CODIGO_GRUPO Type.VARCHAR(10)" style="shape=partialRectangle;overflow=hidden;connectable=0;fillColor=none;top=0;left=0;bottom=0;right=0;align=left;spacingLeft=6;fontStyle=5;" vertex="1" parent="LmmAYVEM7wrtZ3ZLRTmw-33">
          <mxGeometry x="31" y="60" width="240" height="30" as="geometry" />
        </mxCell>
        <mxCell id="LmmAYVEM7wrtZ3ZLRTmw-31" value="&lt;span style=&quot;color: rgb(0, 0, 0); font-family: helvetica; font-size: 12px; font-style: normal; font-weight: bold; letter-spacing: normal; text-align: left; text-indent: 0px; text-transform: none; word-spacing: 0px; background-color: rgb(248, 249, 250); text-decoration: underline; display: inline; float: none;&quot;&gt;CODIGO_CASADINHA&amp;nbsp;Type.INTEGER()&lt;/span&gt;" style="text;whiteSpace=wrap;html=1;" vertex="1" parent="LmmAYVEM7wrtZ3ZLRTmw-33">
          <mxGeometry x="38" y="40" width="250" height="30" as="geometry" />
        </mxCell>
        <mxCell id="LmmAYVEM7wrtZ3ZLRTmw-32" value="fields de log" style="shape=partialRectangle;overflow=hidden;connectable=0;fillColor=none;top=0;left=0;bottom=0;right=0;align=left;spacingLeft=6;" vertex="1" parent="LmmAYVEM7wrtZ3ZLRTmw-33">
          <mxGeometry x="38" y="110" width="80" height="30" as="geometry" />
        </mxCell>
        <mxCell id="LmmAYVEM7wrtZ3ZLRTmw-34" value="" style="group" vertex="1" connectable="0" parent="1">
          <mxGeometry x="490" y="320" width="288" height="180" as="geometry" />
        </mxCell>
        <mxCell id="LmmAYVEM7wrtZ3ZLRTmw-35" value="CASADINHA_FINALIZADORA" style="shape=table;startSize=30;container=1;collapsible=1;childLayout=tableLayout;fixedRows=1;rowLines=0;fontStyle=1;align=center;resizeLast=1;" vertex="1" parent="LmmAYVEM7wrtZ3ZLRTmw-34">
          <mxGeometry width="270" height="180" as="geometry" />
        </mxCell>
        <mxCell id="LmmAYVEM7wrtZ3ZLRTmw-36" value="" style="shape=partialRectangle;collapsible=0;dropTarget=0;pointerEvents=0;fillColor=none;points=[[0,0.5],[1,0.5]];portConstraint=eastwest;top=0;left=0;right=0;bottom=1;" vertex="1" parent="LmmAYVEM7wrtZ3ZLRTmw-35">
          <mxGeometry y="30" width="270" height="70" as="geometry" />
        </mxCell>
        <mxCell id="LmmAYVEM7wrtZ3ZLRTmw-37" value="PK" style="shape=partialRectangle;overflow=hidden;connectable=0;fillColor=none;top=0;left=0;bottom=0;right=0;fontStyle=1;" vertex="1" parent="LmmAYVEM7wrtZ3ZLRTmw-36">
          <mxGeometry width="30" height="70" as="geometry" />
        </mxCell>
        <mxCell id="LmmAYVEM7wrtZ3ZLRTmw-38" value="" style="shape=partialRectangle;overflow=hidden;connectable=0;fillColor=none;top=0;left=0;bottom=0;right=0;align=left;spacingLeft=6;fontStyle=5;" vertex="1" parent="LmmAYVEM7wrtZ3ZLRTmw-36">
          <mxGeometry x="30" width="240" height="70" as="geometry" />
        </mxCell>
        <mxCell id="LmmAYVEM7wrtZ3ZLRTmw-39" value="" style="shape=partialRectangle;collapsible=0;dropTarget=0;pointerEvents=0;fillColor=none;points=[[0,0.5],[1,0.5]];portConstraint=eastwest;top=0;left=0;right=0;bottom=0;" vertex="1" parent="LmmAYVEM7wrtZ3ZLRTmw-35">
          <mxGeometry y="100" width="270" height="30" as="geometry" />
        </mxCell>
        <mxCell id="LmmAYVEM7wrtZ3ZLRTmw-40" value="" style="shape=partialRectangle;overflow=hidden;connectable=0;fillColor=none;top=0;left=0;bottom=0;right=0;" vertex="1" parent="LmmAYVEM7wrtZ3ZLRTmw-39">
          <mxGeometry width="30" height="30" as="geometry" />
        </mxCell>
        <mxCell id="LmmAYVEM7wrtZ3ZLRTmw-41" value="" style="shape=partialRectangle;overflow=hidden;connectable=0;fillColor=none;top=0;left=0;bottom=0;right=0;align=left;spacingLeft=6;" vertex="1" parent="LmmAYVEM7wrtZ3ZLRTmw-39">
          <mxGeometry x="30" width="240" height="30" as="geometry" />
        </mxCell>
        <mxCell id="LmmAYVEM7wrtZ3ZLRTmw-42" value="CODIGO_FINALIZADORA Type.TINYINT" style="shape=partialRectangle;overflow=hidden;connectable=0;fillColor=none;top=0;left=0;bottom=0;right=0;align=left;spacingLeft=6;fontStyle=5;" vertex="1" parent="LmmAYVEM7wrtZ3ZLRTmw-34">
          <mxGeometry x="31" y="60" width="240" height="30" as="geometry" />
        </mxCell>
        <mxCell id="LmmAYVEM7wrtZ3ZLRTmw-43" value="&lt;span style=&quot;color: rgb(0, 0, 0); font-family: helvetica; font-size: 12px; font-style: normal; font-weight: bold; letter-spacing: normal; text-align: left; text-indent: 0px; text-transform: none; word-spacing: 0px; background-color: rgb(248, 249, 250); text-decoration: underline; display: inline; float: none;&quot;&gt;CODIGO_CASADINHA&amp;nbsp;Type.INTEGER()&lt;/span&gt;" style="text;whiteSpace=wrap;html=1;" vertex="1" parent="LmmAYVEM7wrtZ3ZLRTmw-34">
          <mxGeometry x="38" y="40" width="250" height="30" as="geometry" />
        </mxCell>
        <mxCell id="LmmAYVEM7wrtZ3ZLRTmw-44" value="fields de log" style="shape=partialRectangle;overflow=hidden;connectable=0;fillColor=none;top=0;left=0;bottom=0;right=0;align=left;spacingLeft=6;" vertex="1" parent="LmmAYVEM7wrtZ3ZLRTmw-34">
          <mxGeometry x="38" y="110" width="80" height="30" as="geometry" />
        </mxCell>
        <mxCell id="LmmAYVEM7wrtZ3ZLRTmw-45" value="Criar tabelas de logs&#xa;utilizando framework" style="shape=partialRectangle;overflow=hidden;connectable=0;fillColor=none;top=0;left=0;bottom=0;right=0;align=left;spacingLeft=6;" vertex="1" parent="1">
          <mxGeometry x="594" y="240" width="196" height="30" as="geometry" />
        </mxCell>
        <mxCell id="LmmAYVEM7wrtZ3ZLRTmw-46" value="&lt;font style=&quot;font-size: 18px&quot;&gt;Novas tabelas para projeto COOP&amp;nbsp;&lt;/font&gt;" style="text;html=1;strokeColor=none;fillColor=none;align=center;verticalAlign=middle;whiteSpace=wrap;rounded=0;" vertex="1" parent="1">
          <mxGeometry x="10" y="40" width="720" height="20" as="geometry" />
        </mxCell>
        <mxCell id="LmmAYVEM7wrtZ3ZLRTmw-47" value="" style="endArrow=none;html=1;" edge="1" parent="1">
          <mxGeometry width="50" height="50" relative="1" as="geometry">
            <mxPoint x="40" y="80" as="sourcePoint" />
            <mxPoint x="600" y="80" as="targetPoint" />
          </mxGeometry>
        </mxCell>
      </root>
    </mxGraphModel>
  </diagram>
</mxfile>
